<svg xmlns="http://www.w3.org/2000/svg" width="200" height="200" viewBox="0 0 200 200">
  <defs>
    <style>
      .cls-1 {
        fill: #0d737f;
        fill-rule: evenodd;
      }
    </style>
  </defs>
  <path class="cls-1" d="M194.987,78.815c0,25.357-28.957,29.886-45.265,30.942-0.152,6.792,3.506,12.527,12.8,12.527,7.316,0,14.327-3.17,19.814-6.338l5.333,16.149c-3.048,2.113-15.088,8.906-32.157,8.906-22.251,0-31.4-13.283-31.4-31.093,0-25.659,17.222-50.865,46.789-50.865,14.936,0,24.08,6.792,24.08,19.772h0Zm-27.738-1.963c-8.992,0-14.021,9.51-16,17.66,8.839-.453,21.336-4.679,21.336-12.83,0-3.32-2.591-4.831-5.334-4.831h0Zm-51.385,41.392h-82.4L5.014,138.586H126.089c-5.732-4.979-9.015-12.04-10.225-20.342m24-58.048H68.648L40.194,80.537h82.169a54.075,54.075,0,0,1,17.5-20.341m-21.011,28.7h-66.5L23.9,109.233h91.432a67.529,67.529,0,0,1,3.52-20.342"/>
</svg>
