<?xml version="1.0" encoding="utf-8"?>
<!-- Generator: Adobe Illustrator 23.0.5, SVG Export Plug-In . SVG Version: 6.00 Build 0)  -->
<svg version="1.1" id="Layer_1" xmlns="http://www.w3.org/2000/svg" xmlns:xlink="http://www.w3.org/1999/xlink" x="0px" y="0px"
	 viewBox="0 0 2048 2048" style="enable-background:new 0 0 2048 2048;" xml:space="preserve">
<style type="text/css">
	.st0{fill:url(#SVGID_1_);}
	.st1{fill:#FFFFFF;}
	.st2{fill:url(#SVGID_2_);}
	.st3{fill:url(#SVGID_3_);}
	.st4{fill:url(#SVGID_4_);}
	.st5{fill:url(#SVGID_5_);}
	.st6{fill:url(#SVGID_6_);}
</style>
<g>
	<linearGradient id="SVGID_1_" gradientUnits="userSpaceOnUse" x1="84.0638" y1="1410.2048" x2="1958.655" y2="1410.2048">
		<stop  offset="0" style="stop-color:#ABCE37"/>
		<stop  offset="1" style="stop-color:#3C6E3A"/>
	</linearGradient>
	<path class="st0" d="M1477.14,1891.72H565.58c-265.94,0-481.52-215.58-481.52-481.52v0c0-265.94,215.58-481.52,481.52-481.52
		h911.55c265.94,0,481.52,215.58,481.52,481.52v0C1958.66,1676.14,1743.07,1891.72,1477.14,1891.72z"/>
	<path class="st1" d="M1466.62,1008.03c-222.11,0-402.17,180.06-402.17,402.17c0,222.11,180.06,402.17,402.17,402.17
		c222.12,0,402.17-180.06,402.17-402.17C1868.79,1188.09,1688.74,1008.03,1466.62,1008.03z"/>
	<g>
		<path class="st1" d="M897.41,1113.67l-92.04,84.27c-52.11-49.9-116.43-75.41-195.17-75.41c-77.62,0-143.04,26.62-195.17,78.73
			c-52.11,52.12-77.62,117.55-77.62,196.28s25.5,144.16,77.62,196.27c52.12,52.12,117.55,77.63,195.17,77.63
			c73.19,0,135.29-22.18,185.18-66.53v-141.94H580.27v-123.09h345.97v311.6c-74.29,89.82-188.51,145.26-316.04,145.26
			c-114.22,0-211.79-37.7-291.64-113.1c-78.73-76.52-118.65-171.88-118.65-286.1s39.92-209.58,118.65-286.1
			c79.85-76.51,177.42-114.22,291.64-114.22S819.78,1036.05,897.41,1113.67z"/>
	</g>
</g>
<g>
	<g>
		<linearGradient id="SVGID_2_" gradientUnits="userSpaceOnUse" x1="1175.4131" y1="468.7712" x2="1551.9655" y2="468.7712">
			<stop  offset="0" style="stop-color:#283784"/>
			<stop  offset="1" style="stop-color:#1072BA"/>
		</linearGradient>
		<path class="st2" d="M1495.64,604.64c-16.65,17.03-36,30.44-58.06,40.21c-22.06,9.77-45.97,14.66-71.71,14.66
			c-17.23,0-33.92-2.28-50.08-6.82c-16.16-4.55-31.31-11.03-45.44-19.45c-14.13-8.42-27-18.44-38.61-30.05
			c-11.61-11.61-21.63-24.53-30.05-38.76c-8.42-14.23-14.91-29.42-19.45-45.58c-4.55-16.16-6.82-32.95-6.82-50.37
			c0-17.42,2.27-34.21,6.82-50.37c4.55-16.16,11.03-31.31,19.45-45.44c8.42-14.13,18.44-27,30.05-38.61
			c11.61-11.61,24.48-21.58,38.61-29.9c14.13-8.32,29.22-14.76,45.29-19.31c16.06-4.55,32.81-6.82,50.22-6.82
			c25.74,0,49.65,4.89,71.71,14.66c22.07,9.78,41.42,23.18,58.06,40.21v-35.42c0-8.51,4.26-12.77,12.78-12.77h29.9
			c9.1,0,13.65,4.26,13.65,12.77v343.46c0,3.87-1.26,6.97-3.78,9.29c-2.52,2.32-5.52,3.48-9,3.48H1509c-4.06,0-7.31-1.26-9.73-3.77
			c-2.42-2.51-3.63-5.52-3.63-9V604.64z M1498.55,468.48c0-18.19-3.48-35.56-10.44-52.11c-6.96-16.55-16.43-31.01-28.42-43.4
			c-11.99-12.38-26.05-22.26-42.19-29.61c-16.14-7.35-33.31-11.03-51.48-11.03s-35.24,3.68-51.19,11.03
			c-15.95,7.36-29.87,17.23-41.76,29.61c-11.89,12.39-21.27,26.85-28.13,43.4c-6.86,16.55-10.29,33.92-10.29,52.11
			c0,18,3.43,35.33,10.29,51.97c6.86,16.65,16.24,31.31,28.13,43.98c11.89,12.68,25.81,22.79,41.76,30.34
			c15.95,7.55,33.02,11.32,51.19,11.32s35.33-3.78,51.48-11.32c16.14-7.55,30.21-17.66,42.19-30.34
			c11.98-12.67,21.46-27.34,28.42-43.98C1495.06,503.81,1498.55,486.48,1498.55,468.48z"/>
	</g>
	<g>
		<linearGradient id="SVGID_3_" gradientUnits="userSpaceOnUse" x1="1591.63" y1="550.2722" x2="1962.2312" y2="550.2722">
			<stop  offset="0" style="stop-color:#283784"/>
			<stop  offset="1" style="stop-color:#1072BA"/>
		</linearGradient>
		<path class="st3" d="M1658.01,293.23c4.12,10.85,9.43,24.62,15.94,41.32c6.51,16.71,13.55,34.76,21.15,54.17
			c7.59,19.42,15.45,39.43,23.59,60.03c8.13,20.61,15.94,40.24,23.43,58.89c7.48,18.66,14.32,35.63,20.5,50.92
			c6.18,15.29,11.11,27.39,14.8,36.28c3.47-8.89,8.24-20.99,14.32-36.28c6.07-15.29,12.74-32.32,20.01-51.08
			c7.27-18.76,14.91-38.45,22.94-59.06c8.02-20.6,15.78-40.62,23.26-60.03c7.48-19.41,14.42-37.47,20.82-54.18
			c6.4-16.7,11.66-30.47,15.78-41.32c1.52-3.69,3.68-6.61,6.51-8.79c2.82-2.17,6.4-3.25,10.74-3.25h36.11
			c9.54,0,14.32,3.8,14.32,11.39c0,0.65-0.11,1.41-0.33,2.28c-0.22,0.87-0.54,1.85-0.98,2.93c-0.44,1.09-0.76,2.28-0.98,3.58
			l-76.46,188.39l-130.15,318.87v-0.65c-3.04,8.02-8.79,12.04-17.25,12.04h-32.21c-10.41,0-15.62-4.01-15.62-12.04
			c0-1.52,0.21-3.09,0.65-4.72c0.43-1.63,0.65-2.66,0.65-3.09l54.34-131.13l-150.97-367.35c-0.22-0.65-0.44-1.41-0.65-2.28
			c-0.44-1.73-0.65-3.91-0.65-6.51c0-7.59,4.99-11.39,14.97-11.39h34.16c4.34,0,7.92,1.09,10.74,3.25
			C1654.32,286.61,1656.49,289.54,1658.01,293.23z"/>
	</g>
	<g>
		<linearGradient id="SVGID_4_" gradientUnits="userSpaceOnUse" x1="747.8575" y1="520.7099" x2="1123.4147" y2="520.7099">
			<stop  offset="0" style="stop-color:#283784"/>
			<stop  offset="1" style="stop-color:#1072BA"/>
		</linearGradient>
		<path class="st4" d="M803.99,332.5c16.6-16.97,35.91-30.33,57.92-40.07c22.01-9.74,45.86-14.61,71.53-14.61
			c17.37,0,34.07,2.27,50.1,6.8c16.02,4.53,31.08,10.95,45.18,19.24c14.09,8.3,26.93,18.23,38.51,29.8
			c11.58,11.57,21.57,24.4,29.97,38.48c8.4,14.08,14.87,29.18,19.4,45.28c4.54,16.11,6.81,32.84,6.81,50.2
			c0,17.36-2.27,34.1-6.81,50.2c-4.54,16.11-11,31.25-19.4,45.42c-8.4,14.18-18.39,27.05-29.97,38.63
			c-11.58,11.57-24.42,21.56-38.51,29.95c-14.1,8.39-29.2,14.85-45.32,19.38c-16.12,4.53-32.78,6.8-49.95,6.8
			c-25.68,0-49.53-4.88-71.53-14.61c-22.01-9.74-41.32-23.1-57.92-40.07v147.56c0,3.47-1.21,6.46-3.62,8.97
			c-2.41,2.51-5.64,3.76-9.69,3.76h-30.09c-3.47,0-6.46-1.16-8.97-3.47c-2.51-2.32-3.76-5.4-3.76-9.26V297.2
			c0-8.49,4.53-12.73,13.6-12.73h29.8c8.49,0,12.73,4.24,12.73,12.73V332.5z M801.1,467.62c0,17.94,3.47,35.21,10.41,51.79
			c6.95,16.59,16.39,31.2,28.35,43.83c11.96,12.64,25.94,22.71,41.95,30.24c16.01,7.52,33.18,11.28,51.5,11.28
			c18.13,0,35.15-3.76,51.07-11.28c15.91-7.52,29.8-17.6,41.66-30.24c11.86-12.63,21.22-27.24,28.07-43.83
			c6.84-16.59,10.27-33.85,10.27-51.79c0-18.13-3.43-35.44-10.27-51.94c-6.85-16.49-16.2-30.91-28.07-43.25
			c-11.86-12.34-25.75-22.18-41.66-29.51c-15.92-7.33-32.94-10.99-51.07-10.99c-18.33,0-35.49,3.67-51.5,10.99
			c-16.01,7.33-29.99,17.17-41.95,29.51c-11.96,12.35-21.41,26.76-28.35,43.25C804.57,432.17,801.1,449.49,801.1,467.62z"/>
	</g>
	<g>
		<linearGradient id="SVGID_5_" gradientUnits="userSpaceOnUse" x1="328.5605" y1="674.4628" x2="655.5234" y2="674.4628">
			<stop  offset="0" style="stop-color:#283784"/>
			<stop  offset="1" style="stop-color:#1072BA"/>
		</linearGradient>
		<polygon class="st5" points="655.52,800.93 437.68,800.93 328.56,674.9 441.74,547.99 		"/>
		<linearGradient id="SVGID_6_" gradientUnits="userSpaceOnUse" x1="87.1068" y1="457.6318" x2="747.8575" y2="457.6318">
			<stop  offset="0" style="stop-color:#283784"/>
			<stop  offset="1" style="stop-color:#1072BA"/>
		</linearGradient>
		<polygon class="st6" points="532.42,120.83 256.76,441.64 256.76,280.12 87.11,280.12 87.11,794.43 188.05,794.43 747.86,121.18 
					"/>
	</g>
</g>
</svg>
