<svg xmlns="http://www.w3.org/2000/svg" width="200" height="200" viewBox="0 0 200 200">
  <defs>
    <style>
      .cls-1 {
        fill: #ff5f00;
      }

      .cls-1, .cls-2, .cls-3 {
        fill-rule: evenodd;
      }

      .cls-2 {
        fill: #eb001b;
      }

      .cls-3 {
        fill: #f79e1b;
      }
    </style>
  </defs>
  <path class="cls-1" d="M76.094,144.261h50.59V52.74H76.094v91.522Z"/>
  <path class="cls-2" d="M77.62,100.01a58.978,58.978,0,0,1,22.429-46.375A58.876,58.876,0,1,0,63.759,159a58.285,58.285,0,0,0,36.29-12.612A58.975,58.975,0,0,1,77.62,100.013"/>
  <path class="cls-3" d="M195,100a58.668,58.668,0,0,1-95.007,46.366,59.14,59.14,0,0,0,0-92.733A58.668,58.668,0,0,1,195,100Z"/>
</svg>
