<svg width="20" height="20" viewBox="0 0 20 20" fill="none" xmlns="http://www.w3.org/2000/svg">
  <path d="M15 2H19C19.2652 2 19.5196 2.10536 19.7071 2.29289C19.8946 2.48043 20 2.73478 20 3V19C20 19.2652 19.8946 19.5196 19.7071 19.7071C19.5196 19.8946 19.2652 20 19 20H1C0.734784 20 0.48043 19.8946 0.292893 19.7071C0.105357 19.5196 0 19.2652 0 19V3C0 2.73478 0.105357 2.48043 0.292893 2.29289C0.48043 2.10536 0.734784 2 1 2H5V1C5 0.447715 5.44772 0 6 0C6.55228 0 7 0.447715 7 1V2H13V1C13 0.447715 13.4477 0 14 0C14.5523 0 15 0.447715 15 1V2ZM13 4H7V5C7 5.55228 6.55228 6 6 6C5.44772 6 5 5.55228 5 5V4H2V8H18V4H15V5C15 5.55228 14.5523 6 14 6C13.4477 6 13 5.55228 13 5V4ZM18 10H2V18H18V10Z" fill="white"/>
</svg>
