<svg width="18" height="22" viewBox="0 0 18 22" fill="none" xmlns="http://www.w3.org/2000/svg">
  <path d="M8.99995 16.2171C12.8212 16.2171 16.1634 17.8606 17.9812 20.3128L16.0591 21.2216C14.5794 19.4686 11.9707 18.3041 8.99995 18.3041C6.02917 18.3041 3.42047 19.4686 1.94082 21.2216L0.0197754 20.3117C1.83751 17.8596 5.17873 16.2171 8.99995 16.2171ZM8.99995 0.564941C10.3837 0.564941 11.7108 1.11463 12.6892 2.09308C13.6677 3.07153 14.2173 4.39859 14.2173 5.78233V8.91277C14.2173 10.2573 13.6982 11.5498 12.7683 12.5209C11.8384 13.492 10.5696 14.0666 9.22638 14.1249L8.99995 14.1302C7.61621 14.1302 6.28915 13.5805 5.3107 12.602C4.33225 11.6236 3.78256 10.2965 3.78256 8.91277V5.78233C3.78264 4.43785 4.30173 3.14529 5.23159 2.17422C6.16146 1.20314 7.4303 0.628509 8.77351 0.570159L8.99995 0.564941ZM8.99995 2.6519C8.20147 2.65185 7.43315 2.95693 6.8522 3.50472C6.27125 4.0525 5.92158 4.80158 5.87473 5.59868L5.86951 5.78233V8.91277C5.86873 9.72763 6.18571 10.5107 6.7531 11.0955C7.32049 11.6804 8.09358 12.021 8.90808 12.0449C9.72259 12.0688 10.5143 11.7742 11.115 11.2236C11.7158 10.673 12.0781 9.90992 12.1252 9.09642L12.1304 8.91277V5.78233C12.1304 4.95209 11.8006 4.15585 11.2135 3.56878C10.6264 2.98171 9.83019 2.6519 8.99995 2.6519Z" fill="white"/>
</svg>
