<svg width="20" height="20" viewBox="0 0 20 20" fill="none" xmlns="http://www.w3.org/2000/svg">
  <path d="M9 0C13.968 0 18 4.032 18 9C18 13.968 13.968 18 9 18C4.032 18 0 13.968 0 9C0 4.032 4.032 0 9 0ZM9 16C12.867 16 16 12.867 16 9C16 5.132 12.867 2 9 2C5.132 2 2 5.132 2 9C2 12.867 5.132 16 9 16ZM16.778 16.778C17.1685 16.3875 17.8016 16.3875 18.1921 16.7779L19.6064 18.1916C19.9972 18.5823 19.9972 19.2158 19.6065 19.6065C19.2158 19.9972 18.5823 19.9972 18.1916 19.6064L16.7779 18.1921C16.3875 17.8016 16.3875 17.1685 16.778 16.778Z" fill="white"/>
</svg>
