<svg width="21" height="15" viewBox="0 0 21 15" fill="none" xmlns="http://www.w3.org/2000/svg">
  <path fill-rule="evenodd" clip-rule="evenodd" d="M19.446 15H19.339C18.481 15 17.785 14.304 17.785 13.446C17.785 12.588 18.481 11.892 19.339 11.892H19.446C20.304 11.892 21 12.588 21 13.446C21 14.304 20.304 15 19.446 15ZM1.9475 12.2221L14.2975 12.2221C14.9735 12.2221 15.5215 12.7701 15.5215 13.4461C15.5215 14.1221 14.9735 14.6701 14.2975 14.6701L1.9475 14.6701C1.2715 14.6701 0.723499 14.1221 0.723499 13.4461C0.723499 12.7701 1.2715 12.2221 1.9475 12.2221ZM1.9479 8.8315L14.2979 8.8315C14.9729 8.8315 15.5219 8.2835 15.5219 7.6075C15.5219 6.9315 14.9729 6.3835 14.2979 6.3835L1.9479 6.3835C1.2719 6.3835 0.7239 6.9315 0.7239 7.6075C0.7239 8.2835 1.2719 8.8315 1.9479 8.8315ZM19.446 9.1611H19.339C18.481 9.1611 17.785 8.4651 17.785 7.6071C17.785 6.7491 18.481 6.0531 19.339 6.0531H19.446C20.304 6.0531 21 6.7491 21 7.6071C21 8.4651 20.304 9.1611 19.446 9.1611ZM1.9479 2.9931L14.2979 2.9931C14.9729 2.9931 15.5219 2.4451 15.5219 1.7691C15.5219 1.0931 14.9729 0.5451 14.2979 0.5451L1.9479 0.5451C1.2719 0.5451 0.7239 1.0931 0.7239 1.7691C0.7239 2.4451 1.2719 2.9931 1.9479 2.9931ZM19.446 3.3227H19.339C18.481 3.3227 17.785 2.6267 17.785 1.7687C17.785 0.9107 18.481 0.2147 19.339 0.2147H19.446C20.304 0.2147 21 0.9107 21 1.7687C21 2.6267 20.304 3.3227 19.446 3.3227Z" fill="white"/>
</svg>
