<svg width="16" height="14" viewBox="0 0 16 14" fill="none" xmlns="http://www.w3.org/2000/svg">
  <path d="M6.26675 8.66667H2.00008C1.64646 8.66667 1.30732 8.52619 1.05727 8.27614C0.807225 8.02609 0.666749 7.68696 0.666749 7.33333V5.93067C0.666569 5.75643 0.700543 5.58384 0.766749 5.42267L2.83075 0.413333C2.88094 0.291169 2.96628 0.186663 3.07595 0.113075C3.18562 0.0394861 3.31468 0.000130314 3.44675 0H14.6667C14.8436 0 15.0131 0.0702379 15.1382 0.195262C15.2632 0.320286 15.3334 0.489856 15.3334 0.666667V7.33333C15.3334 7.51014 15.2632 7.67971 15.1382 7.80474C15.0131 7.92976 14.8436 8 14.6667 8H12.3454C12.2387 7.99997 12.1335 8.02557 12.0387 8.07464C11.9439 8.12372 11.8623 8.19483 11.8007 8.282L8.16542 13.4327C8.11946 13.4978 8.05169 13.5443 7.97439 13.5637C7.89709 13.5832 7.81538 13.5743 7.74408 13.5387L6.53475 12.9333C6.19441 12.7632 5.92253 12.4818 5.76426 12.1358C5.606 11.7898 5.57088 11.4001 5.66475 11.0313L6.26675 8.66667ZM11.3334 6.94133V1.33333H3.89342L2.00008 5.93067V7.33333H6.26675C6.46982 7.33336 6.67019 7.37977 6.8526 7.46903C7.035 7.55828 7.1946 7.68802 7.31923 7.84834C7.44386 8.00867 7.53023 8.19534 7.57174 8.39412C7.61325 8.5929 7.60881 8.79853 7.55875 8.99533L6.95675 11.3607C6.93791 11.4344 6.9449 11.5125 6.97655 11.5817C7.00821 11.651 7.06263 11.7073 7.13075 11.7413L7.57142 11.9613L10.7114 7.51333C10.8781 7.27733 11.0914 7.084 11.3334 6.94133ZM12.6667 6.66667H14.0001V1.33333H12.6667V6.66667Z" fill="#D5D5D5"/>
</svg>
