<svg width="16" height="14" viewBox="0 0 16 14" fill="none" xmlns="http://www.w3.org/2000/svg">
  <path d="M9.73342 5.33359H14.0001C14.3537 5.33359 14.6928 5.47407 14.9429 5.72412C15.1929 5.97417 15.3334 6.31331 15.3334 6.66693V8.06959C15.3336 8.24383 15.2996 8.41642 15.2334 8.57759L13.1701 13.5876C13.1197 13.7097 13.0343 13.8142 12.9245 13.8876C12.8147 13.9611 12.6855 14.0003 12.5534 14.0003H1.33341C1.1566 14.0003 0.987034 13.93 0.86201 13.805C0.736986 13.68 0.666748 13.5104 0.666748 13.3336V6.66693C0.666748 6.49012 0.736986 6.32055 0.86201 6.19552C0.987034 6.0705 1.1566 6.00026 1.33341 6.00026H3.65475C3.76148 6.00029 3.86666 5.97469 3.96144 5.92562C4.05622 5.87654 4.13783 5.80543 4.19941 5.71826L7.83475 0.566928C7.8807 0.501803 7.94847 0.455302 8.02577 0.435855C8.10307 0.416408 8.18478 0.425303 8.25608 0.460928L9.46542 1.06559C9.80575 1.2357 10.0776 1.51714 10.2359 1.86314C10.3942 2.20914 10.4293 2.59888 10.3354 2.96759L9.73342 5.33359ZM4.66675 7.05893V12.6669H12.1067L14.0001 8.06959V6.66693H9.73342C9.53035 6.6669 9.32997 6.62049 9.14757 6.53123C8.96517 6.44198 8.80556 6.31224 8.68093 6.15192C8.5563 5.9916 8.46993 5.80492 8.42843 5.60614C8.38692 5.40736 8.39136 5.20173 8.44141 5.00493L9.04342 2.63959C9.06226 2.56581 9.05527 2.4878 9.02361 2.41855C8.99195 2.34929 8.93754 2.29296 8.86942 2.25893L8.42875 2.03893L5.28875 6.48693C5.12208 6.72293 4.90875 6.91626 4.66675 7.05893ZM3.33341 7.33359H2.00008V12.6669H3.33341V7.33359Z" fill="var(--ion-color-light-shade)"/>
</svg>
