<svg width="40" height="40" viewBox="0 0 40 40" fill="none" xmlns="http://www.w3.org/2000/svg">
<circle cx="20" cy="20" r="20" fill="#1E91FF"/>
<path d="M22.5652 24.5579C22.5652 24.5579 24.168 23.6404 24.5875 23.4199C25.0059 23.1986 25.4394 23.1428 25.7026 23.3035C26.1012 23.5474 29.4484 25.7739 29.7302 25.971C30.012 26.1686 30.1478 26.7326 29.7603 27.2852C29.3747 27.8382 27.5943 30.0232 26.8398 29.9998C26.0842 29.9753 22.9425 29.9064 17.018 23.9804C11.0944 18.056 11.0243 14.9135 11.0002 14.1582C10.9761 13.403 13.161 11.6218 13.7136 11.2354C14.267 10.8495 14.8319 10.9948 15.0282 11.2663C15.2514 11.5754 17.4523 14.9119 17.6945 15.2947C17.8604 15.5555 17.7994 15.9913 17.5781 16.4101C17.3581 16.8301 16.4405 18.4324 16.4405 18.4324C16.4405 18.4324 17.0873 19.5356 19.2747 21.7226C21.4624 23.9099 22.5652 24.5579 22.5652 24.5579Z" stroke="white" stroke-width="2" stroke-miterlimit="10"/>
</svg>
