<svg width="14" height="14" viewBox="0 0 14 14" fill="none" xmlns="http://www.w3.org/2000/svg">
  <path d="M6.20262 0C9.62647 0 12.4052 2.77877 12.4052 6.20262C12.4052 9.62646 9.62647 12.4052 6.20262 12.4052C2.77877 12.4052 0 9.62646 0 6.20262C0 2.77877 2.77877 0 6.20262 0ZM6.20262 11.0269C8.86768 11.0269 11.0269 8.86768 11.0269 6.20262C11.0269 3.53687 8.86768 1.37836 6.20262 1.37836C3.53687 1.37836 1.37836 3.53687 1.37836 6.20262C1.37836 8.86768 3.53687 11.0269 6.20262 11.0269ZM11.5631 11.5631C11.8322 11.2939 12.2685 11.2939 12.5377 11.563L13.5123 12.5373C13.7816 12.8065 13.7817 13.2431 13.5124 13.5124C13.2431 13.7817 12.8065 13.7816 12.5373 13.5123L11.563 12.5376C11.2939 12.2685 11.2939 11.8322 11.5631 11.5631Z" fill="white"/>
</svg>
