<svg width="34" height="30" viewBox="0 0 34 30" fill="none" xmlns="http://www.w3.org/2000/svg">
  <path d="M13.3799 3.33333L10.0466 6.66667H3.66659V26.6667H30.3333V6.66667H23.9533L20.6199 3.33333H13.3799ZM11.9999 0H21.9999L25.3333 3.33333H31.9999C32.4419 3.33333 32.8659 3.50893 33.1784 3.82149C33.491 4.13405 33.6666 4.55797 33.6666 5V28.3333C33.6666 28.7754 33.491 29.1993 33.1784 29.5118C32.8659 29.8244 32.4419 30 31.9999 30H1.99992C1.55789 30 1.13397 29.8244 0.821407 29.5118C0.508847 29.1993 0.333252 28.7754 0.333252 28.3333V5C0.333252 4.55797 0.508847 4.13405 0.821407 3.82149C1.13397 3.50893 1.55789 3.33333 1.99992 3.33333H8.66659L11.9999 0ZM16.9999 25C14.5688 25 12.2372 24.0342 10.5181 22.3151C8.79902 20.5961 7.83325 18.2645 7.83325 15.8333C7.83325 13.4022 8.79902 11.0706 10.5181 9.35152C12.2372 7.63244 14.5688 6.66667 16.9999 6.66667C19.4311 6.66667 21.7626 7.63244 23.4817 9.35152C25.2008 11.0706 26.1666 13.4022 26.1666 15.8333C26.1666 18.2645 25.2008 20.5961 23.4817 22.3151C21.7626 24.0342 19.4311 25 16.9999 25ZM16.9999 21.6667C18.547 21.6667 20.0307 21.0521 21.1247 19.9581C22.2187 18.8642 22.8333 17.3804 22.8333 15.8333C22.8333 14.2862 22.2187 12.8025 21.1247 11.7085C20.0307 10.6146 18.547 10 16.9999 10C15.4528 10 13.9691 10.6146 12.8751 11.7085C11.7812 12.8025 11.1666 14.2862 11.1666 15.8333C11.1666 17.3804 11.7812 18.8642 12.8751 19.9581C13.9691 21.0521 15.4528 21.6667 16.9999 21.6667Z" fill="white"/>
</svg>
