<svg width="106" height="50" viewBox="0 0 106 50" fill="none" xmlns="http://www.w3.org/2000/svg">
  <g opacity="0.6">
    <circle cx="4" cy="4" r="4" fill="#77B6B6"/>
    <circle cx="18" cy="4" r="4" fill="#96BEBE"/>
    <circle cx="32" cy="4" r="4" fill="#C7EDED"/>
    <circle cx="46" cy="4" r="4" fill="#E6F7F7"/>
    <circle cx="46" cy="18" r="4" transform="rotate(180 46 18)" fill="#77B6B6"/>
    <circle cx="32" cy="18" r="4" transform="rotate(180 32 18)" fill="#96BEBE"/>
    <circle cx="18" cy="18" r="4" transform="rotate(180 18 18)" fill="#C7EDED"/>
    <circle cx="4" cy="18" r="4" transform="rotate(180 4 18)" fill="#E6F7F7"/>
    <circle cx="102" cy="4" r="4" transform="rotate(180 102 4)" fill="#77B6B6"/>
    <circle cx="88" cy="4" r="4" transform="rotate(180 88 4)" fill="#96BEBE"/>
    <circle cx="74" cy="4" r="4" transform="rotate(180 74 4)" fill="#C7EDED"/>
    <circle cx="60" cy="4" r="4" transform="rotate(180 60 4)" fill="#E6F7F7"/>
    <circle cx="60" cy="18" r="4" fill="#77B6B6"/>
    <circle cx="74" cy="18" r="4" fill="#96BEBE"/>
    <circle cx="88" cy="18" r="4" fill="#C7EDED"/>
    <circle cx="102" cy="18" r="4" fill="#E6F7F7"/>
    <circle cx="4" cy="32" r="4" fill="#77B6B6"/>
    <circle cx="18" cy="32" r="4" fill="#96BEBE"/>
    <circle cx="32" cy="32" r="4" fill="#C7EDED"/>
    <circle cx="46" cy="32" r="4" fill="#E6F7F7"/>
    <circle cx="46" cy="46" r="4" transform="rotate(180 46 46)" fill="#77B6B6"/>
    <circle cx="32" cy="46" r="4" transform="rotate(180 32 46)" fill="#96BEBE"/>
    <circle cx="18" cy="46" r="4" transform="rotate(180 18 46)" fill="#C7EDED"/>
    <circle cx="4" cy="46" r="4" transform="rotate(180 4 46)" fill="#E6F7F7"/>
    <circle cx="102" cy="32" r="4" transform="rotate(180 102 32)" fill="#77B6B6"/>
    <circle cx="88" cy="32" r="4" transform="rotate(180 88 32)" fill="#96BEBE"/>
    <circle cx="74" cy="32" r="4" transform="rotate(180 74 32)" fill="#C7EDED"/>
    <circle cx="60" cy="32" r="4" transform="rotate(180 60 32)" fill="#E6F7F7"/>
    <circle cx="60" cy="46" r="4" fill="#77B6B6"/>
    <circle cx="74" cy="46" r="4" fill="#96BEBE"/>
    <circle cx="88" cy="46" r="4" fill="#C7EDED"/>
    <circle cx="102" cy="46" r="4" fill="#E6F7F7"/>
  </g>
</svg>
