<svg width="50" height="106" viewBox="0 0 50 106" fill="none" xmlns="http://www.w3.org/2000/svg">
  <g opacity="0.6">
    <circle cx="4" cy="102" r="4" transform="rotate(-90 4 102)" fill="#77B6B6"/>
    <circle cx="4" cy="88" r="4" transform="rotate(-90 4 88)" fill="#96BEBE"/>
    <circle cx="4" cy="74" r="4" transform="rotate(-90 4 74)" fill="#C7EDED"/>
    <circle cx="4" cy="60" r="4" transform="rotate(-90 4 60)" fill="#E6F7F7"/>
    <circle cx="18" cy="60" r="4" transform="rotate(90 18 60)" fill="#77B6B6"/>
    <circle cx="18" cy="74" r="4" transform="rotate(90 18 74)" fill="#96BEBE"/>
    <circle cx="18" cy="88" r="4" transform="rotate(90 18 88)" fill="#C7EDED"/>
    <circle cx="18" cy="102" r="4" transform="rotate(90 18 102)" fill="#E6F7F7"/>
    <circle cx="4" cy="4" r="4" transform="rotate(90 4 4)" fill="#77B6B6"/>
    <circle cx="4" cy="18" r="4" transform="rotate(90 4 18)" fill="#96BEBE"/>
    <circle cx="4" cy="32" r="4" transform="rotate(90 4 32)" fill="#C7EDED"/>
    <circle cx="4" cy="46" r="4" transform="rotate(90 4 46)" fill="#E6F7F7"/>
    <circle cx="18" cy="46" r="4" transform="rotate(-90 18 46)" fill="#77B6B6"/>
    <circle cx="18" cy="32" r="4" transform="rotate(-90 18 32)" fill="#96BEBE"/>
    <circle cx="18" cy="18" r="4" transform="rotate(-90 18 18)" fill="#C7EDED"/>
    <circle cx="18" cy="4" r="4" transform="rotate(-90 18 4)" fill="#E6F7F7"/>
    <circle cx="32" cy="102" r="4" transform="rotate(-90 32 102)" fill="#77B6B6"/>
    <circle cx="32" cy="88" r="4" transform="rotate(-90 32 88)" fill="#96BEBE"/>
    <circle cx="32" cy="74" r="4" transform="rotate(-90 32 74)" fill="#C7EDED"/>
    <circle cx="32" cy="60" r="4" transform="rotate(-90 32 60)" fill="#E6F7F7"/>
    <circle cx="46" cy="60" r="4" transform="rotate(90 46 60)" fill="#77B6B6"/>
    <circle cx="46" cy="74" r="4" transform="rotate(90 46 74)" fill="#96BEBE"/>
    <circle cx="46" cy="88" r="4" transform="rotate(90 46 88)" fill="#C7EDED"/>
    <circle cx="46" cy="102" r="4" transform="rotate(90 46 102)" fill="#E6F7F7"/>
    <circle cx="32" cy="4" r="4" transform="rotate(90 32 4)" fill="#77B6B6"/>
    <circle cx="32" cy="18" r="4" transform="rotate(90 32 18)" fill="#96BEBE"/>
    <circle cx="32" cy="32" r="4" transform="rotate(90 32 32)" fill="#C7EDED"/>
    <circle cx="32" cy="46" r="4" transform="rotate(90 32 46)" fill="#E6F7F7"/>
    <circle cx="46" cy="46" r="4" transform="rotate(-90 46 46)" fill="#77B6B6"/>
    <circle cx="46" cy="32" r="4" transform="rotate(-90 46 32)" fill="#96BEBE"/>
    <circle cx="46" cy="18" r="4" transform="rotate(-90 46 18)" fill="#C7EDED"/>
    <circle cx="46" cy="4" r="4" transform="rotate(-90 46 4)" fill="#E6F7F7"/>
  </g>
</svg>
