<svg width="32" height="32" viewBox="0 0 32 32" fill="none" xmlns="http://www.w3.org/2000/svg">
<circle cx="16" cy="16" r="16" fill="#1E90FF"/>
<g clip-path="url(#clip0_103:5870)">
<path d="M21 5C21 5.55228 21.4477 6 22 6H24C24.2652 6 24.5196 6.10536 24.7071 6.29289C24.8946 6.48043 25 6.73478 25 7V25C25 25.2652 24.8946 25.5196 24.7071 25.7071C24.5196 25.8946 24.2652 26 24 26H8C7.73478 26 7.48043 25.8946 7.29289 25.7071C7.10536 25.5196 7 25.2652 7 25V7C7 6.73478 7.10536 6.48043 7.29289 6.29289C7.48043 6.10536 7.73478 6 8 6H10C10.5523 6 11 5.55228 11 5C11 4.44772 11.4477 4 12 4C12.5523 4 13 4.44772 13 5C13 5.55228 13.4477 6 14 6H18C18.5523 6 19 5.55228 19 5C19 4.44772 19.4477 4 20 4C20.5523 4 21 4.44772 21 5ZM22 8C21.4477 8 21 8.44772 21 9C21 9.55228 20.5523 10 20 10C19.4477 10 19 9.55228 19 9C19 8.44772 18.5523 8 18 8H14C13.4477 8 13 8.44772 13 9C13 9.55228 12.5523 10 12 10C11.4477 10 11 9.55228 11 9C11 8.44772 10.5523 8 10 8C9.44772 8 9 8.44772 9 9V23C9 23.5523 9.44772 24 10 24H22C22.5523 24 23 23.5523 23 23V9C23 8.44772 22.5523 8 22 8ZM11 13C11 12.4477 11.4477 12 12 12H20C20.5523 12 21 12.4477 21 13C21 13.5523 20.5523 14 20 14H12C11.4477 14 11 13.5523 11 13ZM11 17C11 16.4477 11.4477 16 12 16H20C20.5523 16 21 16.4477 21 17C21 17.5523 20.5523 18 20 18H12C11.4477 18 11 17.5523 11 17Z" fill="white"/>
</g>
<defs>
<clipPath id="clip0_103:5870">
<rect width="19.2" height="19.2" fill="white" transform="translate(6.3999 6.3999)"/>
</clipPath>
</defs>
</svg>
