<svg width="68" height="68" viewBox="0 0 68 68" fill="none" xmlns="http://www.w3.org/2000/svg">
<path d="M42.3334 0.66668C44.3022 0.666006 46.2392 1.1636 47.9639 2.11311C49.6887 3.06262 51.1451 4.43318 52.1975 6.09712C53.2499 7.76107 53.864 9.66429 53.9828 11.6295C54.1016 13.5948 53.7211 15.5581 52.8768 17.3367L64.0001 17.3333C64.8841 17.3333 65.732 17.6845 66.3571 18.3097C66.9822 18.9348 67.3334 19.7826 67.3334 20.6667V34C67.3334 34.8841 66.9822 35.7319 66.3571 36.357C65.732 36.9822 64.8841 37.3333 64.0001 37.3333H60.6668V64C60.6668 64.8841 60.3156 65.7319 59.6904 66.357C59.0653 66.9822 58.2175 67.3333 57.3334 67.3333H10.6667C9.78269 67.3333 8.93485 66.9822 8.30973 66.357C7.68461 65.7319 7.33342 64.8841 7.33342 64V37.3333H4.00008C3.11603 37.3333 2.26818 36.9822 1.64306 36.357C1.01794 35.7319 0.666748 34.8841 0.666748 34V20.6667C0.666748 19.7826 1.01794 18.9348 1.64306 18.3097C2.26818 17.6845 3.11603 17.3333 4.00008 17.3333L15.1234 17.3367C13.9359 14.8423 13.6722 12.0074 14.3791 9.33668C15.086 6.66599 16.7177 4.33283 18.9837 2.75252C21.2498 1.17222 24.0031 0.44733 26.7535 0.706905C29.504 0.966479 32.073 2.19367 34.0034 4.17001C35.0869 3.05843 36.3824 2.17561 37.8132 1.57383C39.2441 0.972063 40.7812 0.663587 42.3334 0.66668ZM54.0001 37.3333H14.0001V60.6667H54.0001V37.3333ZM60.6668 24H7.33342V30.6667H60.6668V24ZM25.6667 7.33335C24.3827 7.33398 23.1481 7.8286 22.2188 8.71471C21.2895 9.60082 20.7367 10.8105 20.675 12.0931C20.6133 13.3756 21.0474 14.6328 21.8873 15.604C22.7273 16.5752 23.9087 17.1861 25.1867 17.31L25.6667 17.3333H30.6667V12.3333C30.6667 11.0904 30.2037 9.89204 29.368 8.97195C28.5324 8.05186 27.384 7.476 26.1467 7.35668L25.6667 7.33335ZM42.3334 7.33335L41.8534 7.35668C40.698 7.46738 39.6171 7.97661 38.796 8.79704C37.975 9.61748 37.465 10.698 37.3534 11.8533L37.3334 12.3333V17.3333H42.3334L42.8134 17.31C44.0502 17.1901 45.198 16.614 46.0331 15.694C46.8683 14.7739 47.3309 13.5759 47.3309 12.3333C47.3309 11.0908 46.8683 9.89276 46.0331 8.97272C45.198 8.05269 44.0502 7.47658 42.8134 7.35668L42.3334 7.33335Z" fill="#1E90FF"/>
</svg>
