<svg width="58" height="73" viewBox="0 0 58 73" fill="none" xmlns="http://www.w3.org/2000/svg">
<path d="M49.0001 27.3334C49.0001 22.0291 46.893 16.942 43.1422 13.1913C39.3915 9.44055 34.3044 7.33342 29.0001 7.33342C23.6958 7.33342 18.6087 9.44055 14.8579 13.1913C11.1072 16.942 9.00008 22.0291 9.00008 27.3334V54.0001H49.0001V27.3334ZM55.6668 56.2234L57.0001 58.0001C57.1858 58.2477 57.2989 58.5421 57.3267 58.8504C57.3545 59.1587 57.2959 59.4686 57.1575 59.7454C57.019 60.0223 56.8063 60.2551 56.543 60.4178C56.2797 60.5806 55.9763 60.6668 55.6668 60.6668H2.33342C2.0239 60.6668 1.72049 60.5806 1.4572 60.4178C1.1939 60.2551 0.981125 60.0223 0.842703 59.7454C0.704282 59.4686 0.645687 59.1587 0.673483 58.8504C0.70128 58.5421 0.81437 58.2477 1.00008 58.0001L2.33342 56.2234V27.3334C2.33342 20.261 5.14293 13.4782 10.1439 8.47723C15.1449 3.47626 21.9276 0.666748 29.0001 0.666748C36.0725 0.666748 42.8553 3.47626 47.8563 8.47723C52.8572 13.4782 55.6668 20.261 55.6668 27.3334V56.2234ZM20.6668 64.0001H37.3334C37.3334 66.2102 36.4554 68.3298 34.8926 69.8926C33.3298 71.4554 31.2102 72.3334 29.0001 72.3334C26.7899 72.3334 24.6703 71.4554 23.1075 69.8926C21.5447 68.3298 20.6668 66.2102 20.6668 64.0001V64.0001Z" fill="#1E90FF"/>
</svg>
