<svg width="64" height="71" viewBox="0 0 64 71" fill="none" xmlns="http://www.w3.org/2000/svg">
<path d="M33.6666 44.5066V51.4732C30.6497 50.4066 27.4208 50.0794 24.2513 50.5192C21.0817 50.959 18.0639 52.1529 15.4514 54.0006C12.8388 55.8483 10.7077 58.296 9.23713 61.138C7.76652 63.9799 6.99931 67.1333 6.99992 70.3333L0.333253 70.3299C0.332218 66.2595 1.26299 62.2429 3.05425 58.5879C4.84551 54.9328 7.44971 51.7364 10.6673 49.2434C13.8849 46.7504 17.6305 45.027 21.6171 44.2054C25.6037 43.3838 29.7255 43.4857 33.6666 44.5033V44.5066ZM26.9999 40.3333C15.9499 40.3333 6.99992 31.3833 6.99992 20.3333C6.99992 9.28325 15.9499 0.333252 26.9999 0.333252C38.0499 0.333252 46.9999 9.28325 46.9999 20.3333C46.9999 31.3833 38.0499 40.3333 26.9999 40.3333ZM26.9999 33.6666C34.3666 33.6666 40.3332 27.6999 40.3332 20.3333C40.3332 12.9666 34.3666 6.99992 26.9999 6.99992C19.6332 6.99992 13.6666 12.9666 13.6666 20.3333C13.6666 27.6999 19.6332 33.6666 26.9999 33.6666ZM46.9999 53.6666V43.6666H53.6666V53.6666H63.6666V60.3333H53.6666V70.3333H46.9999V60.3333H36.9999V53.6666H46.9999Z" fill="#1E90FF"/>
</svg>
