<svg width="68" height="60" viewBox="0 0 68 60" fill="none" xmlns="http://www.w3.org/2000/svg">
<path d="M0.666753 19.98C0.664995 17.354 1.18126 14.7535 2.18597 12.3273C3.19069 9.90113 4.66413 7.69697 6.52191 5.84104C8.3797 3.98511 10.5853 2.51388 13.0125 1.51159C15.4397 0.509303 18.0408 -0.00435671 20.6668 2.78342e-05H47.3334C58.3768 2.78342e-05 67.3334 8.98336 67.3334 19.98V60H20.6668C9.62342 60 0.666753 51.0167 0.666753 40.02V19.98ZM60.6668 53.3334V19.98C60.6579 16.4484 59.2497 13.0642 56.7506 10.5688C54.2514 8.07335 50.8651 6.67021 47.3334 6.66669H20.6668C18.9162 6.66231 17.1821 7.00352 15.5637 7.67078C13.9454 8.33804 12.4747 9.31821 11.236 10.5551C9.99723 11.7919 9.01485 13.2612 8.34517 14.8785C7.67548 16.4959 7.33166 18.2295 7.33342 19.98V40.02C7.34224 43.5517 8.75046 46.9359 11.2496 49.4313C13.7488 51.9267 17.1351 53.3298 20.6668 53.3334H60.6668ZM40.6668 26.6667H47.3334V33.3334H40.6668V26.6667ZM20.6668 26.6667H27.3334V33.3334H20.6668V26.6667Z" fill="#1E90FF"/>
</svg>
