<svg width="22" height="24" viewBox="0 0 22 24" fill="none" xmlns="http://www.w3.org/2000/svg">
  <path d="M12 22.8C12 23.4636 11.4624 24 10.8 24H6C2.6916 24 0 21.3084 0 18V6C0 2.6916 2.6916 0 6 0H10.8C11.4624 0 12 0.5364 12 1.2C12 1.8636 11.4624 2.4 10.8 2.4H6C4.0152 2.4 2.4 4.0152 2.4 6V18C2.4 19.9848 4.0152 21.6 6 21.6H10.8C11.4624 21.6 12 22.1364 12 22.8ZM21.5064 12.4584C21.6276 12.1655 21.6276 11.8345 21.5064 11.5417C21.4452 11.3941 21.3576 11.262 21.246 11.1504L16.4472 6.35156C15.978 5.88236 15.2196 5.88236 14.7504 6.35156C14.2812 6.82076 14.2812 7.57924 14.7504 8.04844L17.502 10.8H8.39879C7.73639 10.8 7.19879 11.3364 7.19879 12C7.19879 12.6636 7.73639 13.2 8.39879 13.2H17.502L14.7504 15.9516C14.2812 16.4208 14.2812 17.1792 14.7504 17.6484C14.9844 17.8824 15.2916 18 15.5988 18C15.906 18 16.2132 17.8824 16.4472 17.6484L21.246 12.8496C21.3576 12.738 21.4464 12.606 21.5064 12.4584Z" fill="white"/>
</svg>
