<svg width="20" height="20" viewBox="0 0 20 20" fill="none" xmlns="http://www.w3.org/2000/svg">
  <path d="M15.5 9.27868e-07C16.4168 6.96194e-05 17.3118 0.280205 18.0651 0.802909C18.8184 1.32561 19.394 2.06594 19.7149 2.9248C20.0359 3.78366 20.0868 4.72006 19.8609 5.60867C19.635 6.49727 19.1431 7.29567 18.451 7.897C18.806 8.864 19 9.91 19 11C18.9992 12.3149 18.7104 13.6137 18.1538 14.8049C17.5971 15.9962 16.7863 17.051 15.7781 17.8952C14.77 18.7394 13.5892 19.3524 12.3187 19.6912C11.0482 20.0299 9.71888 20.0862 8.4243 19.856C7.12971 19.6258 5.9013 19.1147 4.82546 18.3587C3.74963 17.6027 2.85252 16.6202 2.19723 15.4802C1.54195 14.3402 1.14441 13.0705 1.03258 11.7604C0.92076 10.4503 1.09737 9.13154 1.54998 7.897C1.06007 7.47126 0.668047 6.94458 0.400818 6.3531C0.133589 5.76161 -0.00252694 5.11932 0.00180943 4.47028C0.0061458 3.82124 0.150831 3.18082 0.42594 2.59296C0.701049 2.0051 1.10007 1.4837 1.59563 1.06455C2.09118 0.645394 2.67155 0.338399 3.2969 0.164626C3.92226 -0.00914739 4.57781 -0.045586 5.21857 0.0578096C5.85933 0.161205 6.47015 0.401988 7.00911 0.763639C7.54806 1.12529 8.00241 1.59925 8.34098 2.153C9.43818 1.94827 10.5638 1.94827 11.661 2.153C12.0625 1.49502 12.6265 0.951382 13.2989 0.574334C13.9712 0.197286 14.7292 -0.000494339 15.5 9.27868e-07ZM15.5 2C14.677 2 13.925 2.4 13.462 3.052L13.367 3.196L12.649 4.372L11.294 4.119C10.5461 3.97946 9.7805 3.9619 9.02698 4.067L8.71098 4.119L7.35498 4.374L6.63498 3.198C6.451 2.89665 6.20527 2.63769 5.91398 2.43817C5.62269 2.23864 5.29244 2.10308 4.94497 2.04041C4.59751 1.97774 4.24071 1.98938 3.89806 2.07456C3.55542 2.15974 3.23471 2.31653 2.95704 2.53462C2.67937 2.7527 2.45104 3.02712 2.28709 3.33982C2.12314 3.65252 2.02728 3.9964 2.00583 4.34882C1.98438 4.70124 2.03782 5.05421 2.16264 5.38448C2.28745 5.71476 2.48081 6.01485 2.72998 6.265L2.86098 6.388L3.90198 7.292L3.42698 8.587C3.07531 9.54715 2.93827 10.5727 3.02549 11.5915C3.11271 12.6103 3.42207 13.5976 3.93181 14.484C4.44156 15.3704 5.13931 16.1344 5.976 16.7222C6.81269 17.31 7.76799 17.7074 8.77474 17.8863C9.78148 18.0653 10.8152 18.0216 11.8032 17.7582C12.7912 17.4948 13.7095 17.0181 14.4936 16.3617C15.2776 15.7053 15.9083 14.8851 16.3413 13.9588C16.7743 13.0325 16.9992 12.0225 17 11C17 10.284 16.893 9.584 16.686 8.917L16.574 8.587L16.099 7.292L17.139 6.388C17.5238 6.05402 17.7973 5.61044 17.923 5.11668C18.0487 4.62291 18.0205 4.10254 17.8422 3.62523C17.6639 3.14793 17.3441 2.7365 16.9255 2.44604C16.5068 2.15557 16.0095 1.99995 15.5 2ZM7.99998 11C7.99998 11.5304 8.21069 12.0391 8.58576 12.4142C8.96084 12.7893 9.46954 13 9.99998 13C10.5304 13 11.0391 12.7893 11.4142 12.4142C11.7893 12.0391 12 11.5304 12 11H14C14 12.0609 13.5786 13.0783 12.8284 13.8284C12.0783 14.5786 11.0608 15 9.99998 15C8.93911 15 7.9217 14.5786 7.17155 13.8284C6.4214 13.0783 5.99998 12.0609 5.99998 11H7.99998Z" fill="white"/>
</svg>
