<svg xmlns="http://www.w3.org/2000/svg" viewBox="0 0 131.83 70.85"><defs><style>.cls-1{fill:#1c46c4;}.cls-2{fill:#edf3fc;}.cls-3{fill:#0061f3;}.cls-4{fill:#89b440;}.cls-5{fill:#ffbe1b;}.cls-6{fill:#fff;}.cls-7{fill:#0a336a;}.cls-8{fill:none;}.cls-9{fill:#b1bf25;}</style></defs><title>Asset 2</title><g id="Layer_2" data-name="Layer 2"><g id="Layer_1-2" data-name="Layer 1"><path id="Path_4246" data-name="Path 4246" class="cls-1" d="M55.39,53.37a3.54,3.54,0,0,0,.44-.32,3.54,3.54,0,0,1-.44.32"/><path id="Path_4247" data-name="Path 4247" class="cls-2" d="M35.42,0A35.43,35.43,0,1,0,70.85,35.42h0A35.42,35.42,0,0,0,35.42,0"/><path id="Path_4248" data-name="Path 4248" class="cls-3" d="M55.48,26.07l-18-15.52a2.89,2.89,0,0,0-3.75,0l-18,15.52a3.11,3.11,0,0,0-1.45,2.64v22a3.12,3.12,0,0,0,3.12,3.12H53.8a3.13,3.13,0,0,0,3.13-3.13h0V28.71a3.13,3.13,0,0,0-1.45-2.64"/><path id="Path_4249" data-name="Path 4249" class="cls-4" d="M55.48,26.07l-18-15.52a2.89,2.89,0,0,0-3.75,0l-18,15.52a3.11,3.11,0,0,0-1.45,2.64v22a3.12,3.12,0,0,0,3.12,3.12H53.8a3.13,3.13,0,0,0,3.13-3.13h0V28.71a3.13,3.13,0,0,0-1.45-2.64"/><path id="Path_4250" data-name="Path 4250" class="cls-5" d="M47.68,14.44H22.92a3.13,3.13,0,0,0-3.13,3.12V30.14l11.61,10,2.32-1.87a2.87,2.87,0,0,1,3.75,0l2.32,1.87,11-9.48V17.56a3.14,3.14,0,0,0-3.13-3.12"/><path id="Path_4251" data-name="Path 4251" class="cls-6" d="M46.29,30.86H24.56a.82.82,0,0,0,0,1.64H46.3a.82.82,0,1,0,.05-1.64H46.3"/><path id="Path_4252" data-name="Path 4252" class="cls-6" d="M25.83,35.34,27.74,37h15.7l1.92-1.64Z"/><path id="Path_4253" data-name="Path 4253" class="cls-7" d="M15.36,26.32a3.14,3.14,0,0,0-1.1,2.39v22a3.11,3.11,0,0,0,1.1,2.38l16-12.92Zm0,0h0a.39.39,0,0,0,.1-.08l-.1.08"/><path id="Path_4254" data-name="Path 4254" class="cls-7" d="M55.83,26.32l-16,13.81,16,12.92a3.11,3.11,0,0,0,1.1-2.38v-22a3.14,3.14,0,0,0-1.1-2.39m-.1-.08a.39.39,0,0,0,.1.08h0a.39.39,0,0,1-.1-.08"/><path id="Path_4255" data-name="Path 4255" class="cls-7" d="M55.82,26.32l-.06-.05h0l.08.06h0"/><path id="Path_4256" data-name="Path 4256" class="cls-3" d="M54.92,53.59a2.77,2.77,0,0,0,.46-.22,2.77,2.77,0,0,1-.46.22"/><path id="Path_4257" data-name="Path 4257" class="cls-4" d="M37.47,38.26a2.87,2.87,0,0,0-3.75,0L15.36,53.06a3.13,3.13,0,0,0,2,.74H53.81a3.13,3.13,0,0,0,2-.74Z"/><path id="Path_4258" data-name="Path 4258" class="cls-7" d="M39,23.79C38.78,26.16,37.5,28,34.26,28a6,6,0,0,1-.73,0V24l-1.31.52v-.8l1.31-.53v-1l-1.31.52v-.82l1.31-.52v-3h1.24v2.55l2.41-.95v.8l-2.41.95v1.05l2.4-1v.82l-2.4,1V27c1.64-.06,2.85-1,3.1-3.21Z"/><rect id="Rectangle_163" data-name="Rectangle 163" class="cls-8" width="70.85" height="70.85"/><path id="Path_4259" data-name="Path 4259" class="cls-2" d="M96.54.25a35.3,35.3,0,1,0,35.29,35.31h0A35.31,35.31,0,0,0,96.54.25"/><path id="Path_4260" data-name="Path 4260" class="cls-7" d="M98.2,21.34h11.07V15.39a3.13,3.13,0,0,0-3.13-3.14H86.92a3.13,3.13,0,0,0-3.13,3.14v39.5A3.14,3.14,0,0,0,86.92,58h19.22a3.14,3.14,0,0,0,3.13-3.14h0V41.32h-2.46l-5.64,5.55V41.32h-3a4.11,4.11,0,0,1-4.11-4.1V25.45a4.11,4.11,0,0,1,4.11-4.11"/><path id="Path_4261" data-name="Path 4261" class="cls-9" d="M99.49,13.19H93.58a.31.31,0,0,0-.31.31v.63a.31.31,0,0,0,.31.31h5.91a.31.31,0,0,0,.31-.31V13.5a.31.31,0,0,0-.31-.31"/><path id="Path_4262" data-name="Path 4262" class="cls-4" d="M98.2,21.34h9.27V18.58a3.13,3.13,0,0,0-3.13-3.13H88.72a3.13,3.13,0,0,0-3.13,3.13h0V53.15a3.13,3.13,0,0,0,3.13,3.13h15.62a3.13,3.13,0,0,0,3.13-3.13h0V41.32h-.66l-5.64,5.55V41.32h-3a4.11,4.11,0,0,1-4.11-4.11V25.45a4.11,4.11,0,0,1,4.11-4.11"/><path id="Path_4263" data-name="Path 4263" class="cls-5" d="M120.89,21.34H98.2a4.11,4.11,0,0,0-4.11,4.11V37.22a4.11,4.11,0,0,0,4.11,4.1h3v5.55l5.64-5.55h14.07a4.11,4.11,0,0,0,4.11-4.1V25.45a4.11,4.11,0,0,0-4.11-4.11"/><path id="Path_4264" data-name="Path 4264" class="cls-7" d="M106.86,33.13c-.25,3-1.88,5.38-6,5.38a7.26,7.26,0,0,1-.93-.06V33.38L98.29,34V33l1.66-.66V31l-1.66.66v-1L100,30V26.15h1.58v3.24l3.06-1.22v1l-3.06,1.21v1.32l3-1.21v1l-3,1.21V37.2c2.08-.07,3.61-1.21,3.93-4.07Z"/><path id="Path_4265" data-name="Path 4265" class="cls-6" d="M120.66,25.38H110.32a.8.8,0,0,0-.79.84.82.82,0,0,0,.79.8h10.34a.83.83,0,0,0,.79-.85.82.82,0,0,0-.79-.79"/><path id="Path_4266" data-name="Path 4266" class="cls-6" d="M120.66,28.82H110.32a.82.82,0,0,0,0,1.64h10.34a.82.82,0,0,0,0-1.64"/><path id="Path_4267" data-name="Path 4267" class="cls-6" d="M120.66,32.27H110.32a.81.81,0,0,0-.79.85.82.82,0,0,0,.79.79h10.34a.83.83,0,0,0,.79-.85.82.82,0,0,0-.79-.79"/><path id="Path_4268" data-name="Path 4268" class="cls-6" d="M120.66,35.71H110.32a.82.82,0,0,0-.79.85.83.83,0,0,0,.79.8h10.34a.83.83,0,0,0,0-1.65"/><rect id="Rectangle_164" data-name="Rectangle 164" class="cls-8" x="61.24" y="0.25" width="70.59" height="70.59"/></g></g></svg>