<svg xmlns="http://www.w3.org/2000/svg" viewBox="0 0 21.6 18.36"><defs><style>.cls-1{fill:#fff;}</style></defs><title>Asset 1</title><g id="Layer_2" data-name="Layer 2"><g id="Layer_1-2" data-name="Layer 1"><g id="Group_3018" data-name="Group 3018"><path id="Path_3865" data-name="Path 3865" class="cls-1" d="M8.64,18.36V13.5a1.62,1.62,0,0,1,1.62-1.62h1.08A1.63,1.63,0,0,1,13,13.5v4.86Z"/><path id="Path_3866" data-name="Path 3866" class="cls-1" d="M17.32,18.36h-13a2.11,2.11,0,0,1-2.11-2.11V7.49L1,7.41A1.08,1.08,0,0,1,0,6.26a1.12,1.12,0,0,1,.55-.87L9.78.26a2.09,2.09,0,0,1,2,0L21,5.39a1.08,1.08,0,0,1-.45,2l-1.15.08v8.76A2.13,2.13,0,0,1,17.32,18.36ZM4.12,5.87a1,1,0,0,1,.19.61v9.77l13-.05,0-9.72a1.06,1.06,0,0,1,.18-.6l-6.7-3.73Z"/></g></g></g></svg>